<?xml version="1.0" standalone="no"?>
<!DOCTYPE svg PUBLIC "-//W3C//DTD SVG 20010904//EN"
 "http://www.w3.org/TR/2001/REC-SVG-20010904/DTD/svg10.dtd">
<svg version="1.0" xmlns="http://www.w3.org/2000/svg"
 width="1080.000000pt" height="1080.000000pt" viewBox="0 0 1080.000000 1080.000000"
 preserveAspectRatio="xMidYMid meet">

<g transform="translate(0.000000,1080.000000) scale(0.100000,-0.100000)"
fill="#000000" stroke="none">
<path d="M3745 7140 c-8 -12 -425 -1281 -425 -1292 0 -4 19 -8 43 -8 l42 0 75
225 75 225 76 -222 77 -223 261 -3 c143 -1 261 1 261 5 0 10 -419 1284 -426
1295 -7 11 -51 10 -59 -2z"/>
<path d="M6160 7080 l0 -40 215 0 215 0 0 -600 0 -600 235 0 235 0 0 600 0
600 215 0 215 0 0 40 0 40 -665 0 -665 0 0 -40z"/>
<path d="M2510 5548 c-19 -5 -43 -17 -54 -26 -69 -63 -57 -185 23 -227 38 -19
113 -19 151 0 35 18 37 26 13 48 -16 13 -20 14 -37 1 -46 -33 -118 -5 -132 51
-8 31 12 82 37 95 26 14 72 12 95 -4 17 -13 21 -12 37 1 23 22 22 30 -10 47
-42 20 -84 26 -123 14z"/>
<path d="M2927 5546 c-66 -24 -97 -66 -97 -133 0 -78 60 -133 145 -133 91 0
145 51 145 136 0 45 -5 59 -30 87 -20 23 -45 38 -74 46 -53 13 -42 13 -89 -3z
m108 -71 c53 -52 16 -145 -58 -145 -38 0 -74 28 -83 65 -7 30 12 81 35 95 31
18 81 11 106 -15z"/>
<path d="M3820 5548 c-19 -5 -43 -17 -54 -26 -69 -63 -57 -185 23 -227 38 -19
113 -19 151 0 35 18 37 26 13 48 -16 13 -20 14 -37 1 -46 -33 -118 -5 -132 51
-8 31 12 82 37 95 26 14 72 12 95 -4 17 -13 21 -12 37 1 23 22 22 30 -10 47
-42 20 -84 26 -123 14z"/>
<path d="M5403 5550 c-93 -21 -136 -106 -99 -195 20 -48 68 -75 134 -75 29 0
66 7 82 15 28 14 30 20 30 70 0 54 0 55 -29 55 -28 0 -30 -3 -33 -42 -3 -41
-4 -43 -39 -46 -80 -7 -124 84 -69 143 27 29 84 34 116 11 17 -13 21 -12 37 1
23 22 22 30 -10 46 -39 19 -82 25 -120 17z"/>
<path d="M6070 5548 c-19 -5 -43 -17 -54 -26 -69 -63 -57 -185 23 -227 38 -19
113 -19 151 0 35 18 37 26 13 48 -16 13 -20 14 -37 1 -46 -33 -118 -5 -132 51
-8 31 12 82 37 95 26 14 72 12 95 -4 17 -13 21 -12 37 1 23 22 22 30 -10 47
-42 20 -84 26 -123 14z"/>
<path d="M3387 5543 c-5 -8 -74 -162 -103 -230 l-14 -33 33 0 c27 0 35 5 44
30 11 29 14 30 73 30 59 0 62 -1 73 -30 9 -25 17 -30 44 -30 18 0 33 3 32 8 0
4 -26 63 -58 132 -54 118 -59 125 -88 128 -17 2 -33 -1 -36 -5z m53 -100 c8
-21 16 -41 18 -45 2 -5 -14 -8 -37 -8 l-40 0 17 45 c9 25 19 45 22 45 3 0 12
-17 20 -37z"/>
<path d="M4150 5415 l0 -135 30 0 c30 0 30 1 30 55 l0 55 65 0 65 0 0 -55 c0
-54 0 -55 30 -55 l30 0 0 135 0 135 -29 0 c-29 0 -30 -2 -33 -52 l-3 -53 -60
0 -60 0 -3 53 c-3 50 -4 52 -33 52 l-29 0 0 -135z"/>
<path d="M4600 5415 l0 -135 30 0 30 0 0 135 0 135 -30 0 -30 0 0 -135z"/>
<path d="M4860 5415 l0 -135 30 0 29 0 3 82 3 82 65 -82 c52 -65 70 -81 93
-81 l27 -1 0 135 0 135 -30 0 -29 0 -3 -80 -3 -80 -64 80 c-53 66 -69 80 -93
80 l-28 0 0 -135z"/>
<path d="M6400 5415 l0 -135 105 0 105 0 0 25 c0 24 -2 25 -75 25 l-75 0 0 30
0 30 65 0 c62 0 65 1 65 25 0 23 -4 24 -62 27 -60 3 -63 4 -66 31 l-3 27 75 0
c74 0 76 1 76 25 l0 25 -105 0 -105 0 0 -135z"/>
<path d="M6800 5415 l0 -135 30 0 30 0 0 81 0 81 67 -81 c55 -66 72 -81 95
-81 l28 0 0 135 0 135 -35 0 -34 0 -3 -76 -3 -77 -63 77 c-47 58 -68 76 -87
76 l-25 0 0 -135z"/>
<path d="M7210 5525 c0 -23 4 -25 45 -25 l45 0 0 -110 0 -110 30 0 30 0 0 110
0 110 45 0 c41 0 45 2 45 25 l0 25 -120 0 -120 0 0 -25z"/>
<path d="M7620 5415 l0 -135 105 0 105 0 0 25 c0 24 -2 25 -75 25 l-75 0 0 30
c0 29 1 29 63 32 56 3 62 5 65 26 3 21 0 22 -62 22 l-66 0 0 30 0 30 70 0 c68
0 70 1 70 25 l0 25 -100 0 -100 0 0 -135z"/>
<path d="M8010 5416 l0 -136 29 0 c27 0 30 3 33 38 3 31 7 37 29 40 21 2 31
-5 52 -37 23 -35 32 -41 63 -41 l36 0 -31 42 -30 41 24 23 c36 33 35 101 -1
135 -22 21 -37 24 -115 27 l-89 4 0 -136z m151 74 c21 -12 25 -50 7 -68 -7 -7
-31 -12 -55 -12 l-43 0 0 45 c0 45 0 45 36 45 19 0 44 -5 55 -10z"/>
<path d="M3027 4963 c-3 -5 -89 -263 -191 -575 l-187 -568 -214 0 -215 0 0
-40 0 -40 555 0 555 0 0 40 0 40 -296 0 c-234 0 -295 3 -291 13 2 6 73 223
158 480 l153 467 504 -2 504 -3 159 -470 c87 -258 159 -473 159 -477 0 -5
-115 -8 -255 -8 l-255 0 0 -40 0 -40 736 0 735 0 -3 38 -3 37 -217 3 -218 2
-188 573 -188 572 -262 3 c-144 1 -262 1 -262 -2 0 -2 7 -23 15 -46 8 -23 15
-46 15 -51 0 -5 -208 -9 -470 -9 -262 0 -470 4 -470 9 0 5 7 28 15 51 8 23 15
44 15 46 0 7 -89 4 -93 -3z"/>
<path d="M6590 4430 l0 -540 -215 0 -215 0 0 -40 0 -40 665 0 665 0 0 40 0 40
-215 0 -215 0 0 540 0 540 -235 0 -235 0 0 -540z"/>
<path d="M4260 3245 l0 -85 55 0 c30 0 55 5 55 10 0 6 -20 10 -45 10 l-45 0 0
75 c0 43 -4 75 -10 75 -6 0 -10 -35 -10 -85z"/>
<path d="M4580 3245 l0 -85 61 0 c37 0 58 4 54 10 -3 6 -28 10 -56 10 -48 0
-49 1 -49 30 0 29 2 30 48 32 l47 1 -45 6 c-42 6 -45 8 -45 36 0 29 2 30 50
36 l50 6 -57 1 -58 2 0 -85z"/>
<path d="M4946 3302 c-36 -69 -64 -142 -55 -142 5 0 15 11 21 25 9 21 18 25
55 25 37 0 45 -4 55 -25 11 -25 35 -36 25 -12 -25 63 -71 157 -78 157 -5 0
-15 -13 -23 -28z m27 -80 c-19 -2 -37 -2 -39 1 -2 2 4 22 14 45 l17 41 22 -42
21 -42 -35 -3z"/>
<path d="M5250 3245 c0 -50 4 -85 10 -85 6 0 10 11 10 25 0 21 5 25 31 25 21
0 37 -8 51 -25 11 -14 24 -25 29 -25 6 0 1 12 -10 26 -21 26 -21 26 -1 51 25
32 25 48 0 73 -15 15 -33 20 -70 20 l-50 0 0 -85z m109 49 c12 -11 12 -18 3
-39 -10 -21 -18 -25 -52 -25 -40 0 -40 0 -40 38 0 21 3 42 7 46 10 10 65 -3
82 -20z"/>
<path d="M5600 3245 c0 -50 4 -85 10 -85 6 0 10 29 10 66 l0 67 51 -64 c28
-35 55 -65 60 -67 5 -2 9 34 9 82 0 101 -18 117 -22 20 l-3 -66 -50 66 c-27
36 -53 66 -57 66 -5 0 -8 -38 -8 -85z"/>
<path d="M5970 3245 c0 -50 4 -85 10 -85 6 0 10 35 10 85 0 50 -4 85 -10 85
-6 0 -10 -35 -10 -85z"/>
<path d="M6210 3245 c0 -100 18 -115 22 -20 l3 65 50 -64 c28 -36 53 -65 58
-66 4 0 6 39 5 88 l-2 87 -5 -70 -6 -70 -54 68 c-30 37 -58 67 -63 67 -4 0 -8
-38 -8 -85z"/>
<path d="M6596 3309 c-21 -16 -26 -29 -26 -64 0 -35 5 -48 26 -64 29 -23 74
-27 105 -11 20 11 27 64 9 75 -6 4 -10 -8 -10 -29 0 -35 -1 -36 -37 -36 -44 0
-55 6 -72 38 -28 53 36 114 95 92 35 -14 42 -12 20 5 -28 21 -79 18 -110 -6z"/>
</g>
</svg>
